Coordinates
version=1
nRows=20
nColumns=63
inDegrees=yes

Units are S.I. units (second, meters, Newtons, ...)
If the header above contains a line with 'inDegrees', this indicates whether rotational values are in degrees (yes) or radians (no).

endheader
time	pelvis_tilt	pelvis_list	pelvis_rotation	pelvis_tx	pelvis_ty	pelvis_tz	hip_flexion_r	hip_adduction_r	hip_rotation_r	knee_angle_r	knee_angle_r_beta	ankle_angle_r	subtalar_angle_r	mtp_angle_r	hip_flexion_l	hip_adduction_l	hip_rotation_l	knee_angle_l	knee_angle_l_beta	ankle_angle_l	subtalar_angle_l	mtp_angle_l	L5_S1_Flex_Ext	L5_S1_Lat_Bending	L5_S1_axial_rotation	L4_L5_Flex_Ext	L4_L5_Lat_Bending	L4_L5_axial_rotation	L3_L4_Flex_Ext	L3_L4_Lat_Bending	L3_L4_axial_rotation	L2_L3_Flex_Ext	L2_L3_Lat_Bending	L2_L3_axial_rotation	L1_L2_Flex_Ext	L1_L2_Lat_Bending	L1_L2_axial_rotation	L1_T12_Flex_Ext	L1_T12_Lat_Bending	L1_T12_axial_rotation	Abs_r3	Abs_r2	Abs_r1	Abs_t1	Abs_t2	neck_flexion	neck_bending	neck_rotation	arm_flex_r	arm_add_r	arm_rot_r	elbow_flex_r	pro_sup_r	wrist_flex_r	wrist_dev_r	arm_flex_l	arm_add_l	arm_rot_l	elbow_flex_l	pro_sup_l	wrist_flex_l	wrist_dev_l
9.477273	-3.792053	-4.606469	98.094851	0.183935	1.120581	0.420740	3.242600	-3.755127	-4.925317	9.516132	0.166088	23.366001	10.686014	0.000000	2.696196	1.964023	-2.162687	6.503406	0.113506	13.585333	3.618087	0.000000	0.113764	0.563129	1.019792	0.211272	0.748962	1.083529	0.186904	1.369193	1.083529	0.130021	1.369193	0.892318	0.105642	1.148334	0.828581	0.065005	0.872288	0.764844	0.812608	6.370233	5.671776	0.000000	0.000000	23.042172	-1.129733	-2.512582	3.967090	-29.759640	-21.965036	46.118079	69.173599	-7.836213	8.883116	-4.210094	-21.341201	-26.299548	33.640580	53.408367	0.584463	-9.507286
9.500000	-3.878788	-4.548400	97.568978	0.184441	1.120953	0.420555	3.373553	-3.846452	-4.610252	9.733815	0.169887	23.373735	10.993175	0.000000	2.572251	2.003187	-3.304475	6.438863	0.112379	13.754452	4.436121	0.000000	0.108551	0.563324	1.199711	0.201590	0.749221	1.274693	0.178339	1.369666	1.274693	0.124063	1.369666	1.049747	0.100801	1.148730	0.974765	0.062026	0.872589	0.899783	0.775370	6.372435	6.672434	0.000000	0.000000	22.675070	-1.565568	-2.736490	3.708565	-30.904411	-21.286577	46.453994	67.955431	-7.585899	8.212355	-3.589370	-22.492159	-22.911780	33.769446	52.433373	0.614987	-9.259237
9.522727	-3.961173	-4.476980	97.146676	0.184849	1.121203	0.420376	3.457889	-3.932486	-4.369996	9.937570	0.173443	23.401204	11.258471	0.000000	2.454734	2.035990	-4.342810	6.415398	0.111970	13.953058	5.268275	0.000000	0.102783	0.562024	1.348838	0.190879	0.747491	1.433141	0.168863	1.366504	1.433141	0.117471	1.366504	1.180233	0.095445	1.146078	1.095931	0.058730	0.870575	1.011629	0.734171	6.357723	7.501834	0.000000	0.000000	22.183869	-1.869411	-2.840737	3.414313	-32.016763	-20.173676	46.628668	67.252228	-7.577194	7.442720	-3.443529	-23.491485	-23.208410	34.706070	55.387779	0.053150	-8.570071
9.545455	-4.017275	-4.381440	96.827526	0.185116	1.121406	0.420253	3.488073	-3.989630	-4.204989	10.122009	0.176662	23.413763	11.464359	0.000000	2.336838	2.042970	-5.216757	6.426134	0.112157	14.147697	6.022212	0.000000	0.095810	0.564618	1.473395	0.177928	0.750942	1.565482	0.157406	1.372812	1.565482	0.109501	1.372812	1.289220	0.088969	1.151369	1.197133	0.054746	0.874593	1.105046	0.684358	6.387069	8.194578	0.000000	0.000000	21.540737	-2.099469	-2.778109	3.065167	-33.049467	-18.836746	46.714912	67.249076	-7.706561	6.750976	-3.283574	-24.329481	-23.424587	35.652924	58.853415	-0.632841	-7.875934
9.568182	-4.047163	-4.269849	96.602836	0.185256	1.121542	0.420157	3.471240	-4.018695	-4.095537	10.287129	0.179544	23.414120	11.598396	0.000000	2.219690	2.028111	-5.882428	6.460852	0.112763	14.328787	6.625102	0.000000	0.087296	0.570904	1.571796	0.162117	0.759303	1.670033	0.143418	1.388097	1.670033	0.099770	1.388097	1.375321	0.081063	1.164188	1.277084	0.049881	0.884331	1.178847	0.623544	6.458186	8.741856	0.000000	0.000000	20.801254	-2.288958	-2.620507	2.677521	-33.929353	-17.424803	46.734191	68.014343	-7.833898	6.293725	-3.125172	-24.994363	-23.277951	36.614442	61.851202	-1.237374	-7.088644
9.590909	-4.054556	-4.158079	96.460555	0.185283	1.121598	0.420092	3.425803	-4.025457	-4.016440	10.434617	0.182118	23.404910	11.660128	0.000000	2.116824	2.000377	-6.305991	6.513629	0.113684	14.481775	7.014396	0.000000	0.077403	0.580437	1.643182	0.143745	0.771982	1.745881	0.127165	1.411275	1.745881	0.088464	1.411275	1.437784	0.071876	1.183628	1.335086	0.044228	0.899097	1.232387	0.552880	6.566023	9.138887	0.000000	0.000000	20.052141	-2.465111	-2.401042	2.304743	-34.636413	-15.890325	46.652657	69.410274	-7.924600	6.172970	-2.993218	-25.438672	-22.847109	37.590309	64.089195	-1.721936	-6.125916
9.613636	-4.029246	-4.044250	96.457763	0.185133	1.121608	0.420078	3.339009	-3.996001	-4.023725	10.546748	0.184075	23.363974	11.617112	0.000000	2.034477	1.951515	-6.422475	6.586970	0.114964	14.606508	7.186023	0.000000	0.065678	0.594776	1.678924	0.121970	0.791052	1.783857	0.107902	1.446139	1.783857	0.075063	1.446139	1.469059	0.060989	1.212868	1.364126	0.037528	0.921308	1.259193	0.469131	6.728228	9.337674	0.000000	0.000000	19.342958	-2.642290	-2.087238	1.974674	-35.166236	-14.213542	46.361175	71.156215	-7.944818	6.240105	-2.888933	-25.708141	-21.944299	38.428215	65.941096	-2.070464	-5.234988
9.636364	-3.978947	-3.955241	96.463780	0.184944	1.121523	0.420072	3.276850	-3.948260	-4.014808	10.672032	0.186262	23.310408	11.523155	0.000000	1.974634	1.894954	-6.304301	6.647383	0.116019	14.685012	7.045887	0.000000	0.053910	0.612540	1.697495	0.100116	0.814678	1.803589	0.088569	1.489330	1.803589	0.061614	1.489330	1.485308	0.050061	1.249091	1.379215	0.030804	0.948824	1.273122	0.385073	6.929174	9.440960	0.000000	0.000000	18.785960	-2.857674	-1.772771	1.769377	-35.532150	-12.129808	45.830604	72.962292	-7.966623	6.590096	-2.872082	-25.825183	-20.449263	39.134922	67.175212	-2.435594	-4.625189
9.659091	-3.910477	-3.882905	96.525869	0.184710	1.121372	0.420085	3.220922	-3.881819	-4.015437	10.796406	0.188433	23.237958	11.340735	0.000000	1.936850	1.828473	-6.011112	6.706489	0.117050	14.741091	6.751545	0.000000	0.041134	0.631099	1.699289	0.076390	0.839362	1.805494	0.067579	1.534455	1.805494	0.047012	1.534455	1.486878	0.038197	1.286938	1.380672	0.023504	0.977573	1.274467	0.293817	7.139122	9.450934	0.000000	0.000000	18.425444	-3.153915	-1.606873	1.678015	-35.673969	-9.789508	44.991439	74.778571	-7.888986	6.992722	-2.904862	-25.783041	-18.571499	39.602780	68.598906	-2.777939	-4.342149
9.681818	-3.837348	-3.839340	96.635613	0.184475	1.121150	0.420101	3.184929	-3.810153	-4.018195	10.922591	0.190635	23.153086	11.072817	0.000000	1.931598	1.766219	-5.539099	6.768166	0.118127	14.762819	6.292029	0.000000	0.028963	0.647465	1.689575	0.053788	0.861128	1.795173	0.047584	1.574246	1.795173	0.033102	1.574246	1.478378	0.026895	1.320310	1.372780	0.016550	1.002923	1.267181	0.206881	7.324250	9.396909	0.000000	0.000000	18.276824	-3.514030	-1.619341	1.680769	-35.599878	-7.175326	43.859440	76.338913	-7.730407	7.262181	-2.977904	-25.607330	-16.384222	39.845433	70.503758	-3.087686	-4.336592
9.704545	-3.773520	-3.835161	96.779907	0.184272	1.120870	0.420134	3.189843	-3.748202	-4.014674	11.070412	0.193215	23.053883	10.710201	0.000000	1.968061	1.722223	-4.907810	6.831242	0.119228	14.732985	5.680992	0.000000	0.018526	0.659266	1.675930	0.034405	0.876823	1.780676	0.030436	1.602939	1.780676	0.021173	1.602939	1.466439	0.017203	1.344375	1.361693	0.010586	1.021203	1.256947	0.132329	7.457745	9.321020	0.000000	0.000000	18.313843	-3.953854	-1.888073	1.772427	-35.325239	-4.301155	42.484102	77.420127	-7.454298	7.271484	-3.053279	-25.350403	-13.805443	39.889360	72.875948	-3.374758	-4.515469
9.727273	-3.750879	-3.879835	96.949970	0.184140	1.120540	0.420206	3.257542	-3.729776	-3.994381	11.270025	0.196699	22.956205	10.242737	0.000000	2.051037	1.730350	-4.111267	6.889899	0.120251	14.620087	4.900380	0.000000	0.009921	0.663080	1.656984	0.018425	0.881896	1.760546	0.016300	1.612213	1.760546	0.011339	1.612213	1.449861	0.009213	1.352153	1.346300	0.005669	1.027111	1.242738	0.070867	7.500893	9.215650	0.000000	0.000000	18.492380	-4.439706	-2.331415	2.002726	-34.831696	-1.213249	40.948339	78.152659	-7.122673	6.939598	-3.119628	-25.080572	-10.731601	39.732474	75.423491	-3.648397	-4.756414
9.750000	-3.748497	-3.964663	97.134619	0.184073	1.120170	0.420321	3.383181	-3.730242	-3.921895	11.513927	0.200956	22.846201	9.650547	0.000000	2.180473	1.763044	-3.265478	6.956405	0.121412	14.466042	4.090689	0.000000	0.003098	0.660562	1.628375	0.005753	0.878548	1.730149	0.005090	1.606091	1.730149	0.003541	1.606091	1.424828	0.002877	1.347018	1.323055	0.001770	1.023211	1.221281	0.022129	7.472410	9.056535	0.000000	0.000000	18.749216	-4.975462	-3.047336	2.410989	-34.230281	2.349119	39.300504	78.031996	-6.786022	6.251322	-3.171802	-24.722014	-7.592382	39.449623	78.407879	-3.765676	-4.829238
9.772727	-3.780477	-4.073150	97.302229	0.184065	1.119794	0.420493	3.565628	-3.765155	-3.799298	11.824352	0.206374	22.749306	8.969601	0.000000	2.332956	1.837227	-2.370065	7.021459	0.122548	14.259342	3.192870	0.000000	-0.003344	0.651909	1.600142	-0.006209	0.867039	1.700151	-0.005493	1.585051	1.700151	-0.003821	1.585051	1.400125	-0.003105	1.329372	1.300116	-0.001911	1.009807	1.200107	-0.023883	7.374521	8.899512	0.000000	0.000000	19.007992	-5.515375	-3.933376	2.944084	-33.538578	6.080539	37.691777	77.240360	-6.356324	5.310793	-3.150126	-24.274541	-4.336836	38.951602	81.425227	-3.637049	-4.788644
9.795455	-3.856045	-4.198432	97.500432	0.184113	1.119432	0.420756	3.786678	-3.842851	-3.677503	12.184988	0.212668	22.659672	8.201973	0.000000	2.512684	1.958568	-1.399159	7.102527	0.123962	14.020094	2.254247	0.000000	-0.010726	0.634139	1.561147	-0.019919	0.843405	1.658718	-0.017621	1.541846	1.658718	-0.012258	1.541846	1.366003	-0.009960	1.293136	1.268432	-0.006129	0.982281	1.170860	-0.076613	7.173507	8.682630	0.000000	0.000000	19.259671	-6.030956	-5.040020	3.598309	-32.747691	9.903021	36.161623	76.138710	-5.920153	4.210722	-3.083165	-23.761376	-1.177852	38.373400	84.420013	-3.338868	-4.480359
9.818182	-3.962798	-4.338759	97.664132	0.184286	1.119087	0.421120	4.061998	-3.949070	-3.495694	12.599631	0.219905	22.584702	7.395454	0.000000	2.714459	2.099718	-0.639569	7.193445	0.125549	13.798614	1.574229	0.000000	-0.018691	0.608903	1.518509	-0.034712	0.809840	1.613416	-0.030708	1.480486	1.613416	-0.021362	1.480486	1.328695	-0.017357	1.241674	1.233788	-0.010680	0.943190	1.138882	-0.133510	6.888028	8.445491	0.000000	0.000000	19.464687	-6.523224	-6.380185	4.384129	-31.934170	13.890566	34.745438	74.814624	-5.534062	3.119043	-3.038461	-23.265116	2.005668	37.796970	86.379493	-2.677074	-3.784558
9.840909	-4.094893	-4.479392	97.835842	0.184509	1.118796	0.421620	4.362627	-4.081947	-3.315766	13.044678	0.227673	22.525729	6.583225	0.000000	2.929484	2.262897	0.029913	7.294441	0.127312	13.586016	1.031706	0.000000	-0.027889	0.577772	1.466690	-0.051793	0.768437	1.558358	-0.045819	1.404795	1.558358	-0.031875	1.404795	1.283353	-0.025898	1.178193	1.191685	-0.015936	0.894969	1.100017	-0.199211	6.535875	8.157288	0.000000	0.000000	19.582317	-6.953294	-7.867720	5.286357	-31.119087	18.049748	33.475729	73.539983	-5.283223	2.075413	-2.979896	-22.787328	5.074241	37.201467	87.654996	-1.742927	-2.861899
9.863636	-4.238680	-4.608650	98.067794	0.184676	1.118581	0.422275	4.656520	-4.237330	-3.240375	13.486113	0.235377	22.497441	5.858808	0.000000	3.155534	2.436364	0.611583	7.420447	0.129511	13.412448	0.672555	0.000000	-0.038187	0.542864	1.399239	-0.070917	0.722009	1.486692	-0.062738	1.319919	1.486692	-0.043644	1.319919	1.224334	-0.035461	1.107008	1.136882	-0.021820	0.840896	1.049429	-0.272766	6.140983	7.782148	0.000000	0.000000	19.558134	-7.298754	-9.483328	6.284066	-30.331948	22.319376	32.373338	72.546500	-5.132171	1.123462	-2.902707	-22.375419	8.114566	36.587583	88.156781	-0.646154	-1.925144
9.886364	-4.399011	-4.708465	98.321749	0.184827	1.118445	0.423034	4.933208	-4.411628	-3.194548	13.933211	0.243180	22.506985	5.194638	0.000000	3.370088	2.617732	1.060868	7.578673	0.132273	13.302690	0.504685	0.000000	-0.050637	0.503935	1.326052	-0.094037	0.670233	1.408930	-0.083191	1.225266	1.408930	-0.057873	1.225266	1.160295	-0.047021	1.027623	1.077417	-0.028934	0.780595	0.994539	-0.361692	5.700608	7.375101	0.000000	0.000000	19.340497	-7.473307	-11.132097	7.372590	-29.633475	26.882691	31.464994	71.678750	-5.069627	0.224849	-2.792933	-22.053036	11.020045	36.019394	87.901679	0.614725	-1.014369
9.909091	-4.566500	-4.785037	98.640448	0.184917	1.118402	0.423937	5.175426	-4.601170	-3.267697	14.343962	0.250349	22.556260	4.660612	0.000000	3.583029	2.802818	1.425786	7.766959	0.135559	13.234651	0.503002	0.000000	-0.064741	0.461876	1.241787	-0.120231	0.614296	1.319399	-0.106364	1.123006	1.319399	-0.073993	1.123006	1.086563	-0.060119	0.941858	1.008952	-0.036993	0.715447	0.931340	-0.462442	5.224839	6.906446	0.000000	0.000000	18.910334	-7.511989	-12.836368	8.507156	-29.004660	31.407074	30.752327	71.854145	-5.258360	-0.630390	-2.635229	-21.841555	13.800275	35.548053	87.270536	1.546071	-0.349510
